<svg xmlns="http://www.w3.org/2000/svg" xmlns:xlink="http://www.w3.org/1999/xlink" width="2048" zoomAndPan="magnify" viewBox="0 0 1536 1535.999932" height="2048" preserveAspectRatio="xMidYMid meet" version="1.2"><g id="0da2bcfe87"><path style=" stroke:none;fill-rule:nonzero;fill:#ffffff;fill-opacity:1;" d="M 748.5 315.449219 C 700.5 398.101562 595.5 577.648438 587.101562 591.300781 C 584.699219 595.351562 582.300781 598.5 581.851562 598.5 C 581.101562 598.5 560.398438 564.300781 545.25 538.050781 L 541.199219 531 L 442.949219 531 C 364.949219 531 344.851562 531.449219 345.449219 532.800781 C 345.75 533.851562 376.949219 586.050781 414.75 648.75 L 483.300781 762.75 L 480.148438 768.75 C 478.351562 772.050781 445.050781 828 405.898438 893.25 L 334.949219 1011.75 L 616.949219 1013.25 L 644.851562 1059 C 689.851562 1132.648438 715.800781 1175.398438 742.949219 1220.699219 C 763.5 1255.050781 768.75 1262.851562 770.25 1261.199219 C 771.300781 1260.148438 782.851562 1241.398438 796.199219 1219.5 C 809.398438 1197.601562 829.050781 1165.199219 839.851562 1147.5 C 850.648438 1129.800781 873.449219 1092.148438 890.398438 1063.800781 L 921.449219 1012.5 L 1062.300781 1012.5 C 1139.699219 1012.5 1203 1012.199219 1203 1011.75 C 1203 1010.550781 1188.148438 985.648438 1117.199219 867.148438 C 1079.699219 804.75 1055.101562 762.300781 1055.851562 761.25 C 1056.601562 760.5 1070.851562 737.101562 1087.5 709.5 C 1104.300781 681.898438 1135.351562 630.449219 1156.648438 595.050781 L 1195.5 531 L 997.800781 531 L 977.851562 564.75 C 966.75 583.351562 957.300781 598.5 956.851562 598.5 C 956.398438 598.5 949.5 587.550781 941.699219 574.050781 C 933.898438 560.699219 909.449219 519 887.398438 481.5 C 865.351562 444 830.25 384.148438 809.699219 348.75 C 789 313.199219 771.300781 283.5 770.398438 282.449219 C 769.199219 281.101562 763.648438 289.5 748.5 315.449219 Z M 791.398438 496.199219 C 803.101562 515.699219 822.898438 549.300781 835.5 570.75 C 848.101562 592.199219 873.148438 634.351562 891 664.5 C 923.550781 719.25 960.75 782.101562 1016.101562 875.550781 C 1032.300781 903 1045.5 925.800781 1045.5 926.25 C 1045.5 926.699219 1027.800781 927 1006.199219 927 L 966.75 927 L 947.25 894.300781 C 936.601562 876.449219 917.398438 843.898438 904.5 822 C 891.601562 800.101562 865.949219 756.601562 847.351562 725.25 C 828.898438 693.898438 803.851562 651.601562 792 631.199219 C 780 610.800781 769.949219 594 769.5 594.148438 C 769.050781 594.148438 761.699219 606 753.148438 620.699219 C 731.550781 657.601562 708.75 696.300781 676.5 750.75 C 661.351562 776.25 639.300781 813.75 627.300781 834 C 615.449219 854.25 598.050781 883.351562 588.449219 898.800781 L 571.199219 927 L 531.449219 927 C 509.699219 927 492.148438 926.550781 492.449219 925.800781 C 492.75 925.199219 508.5 898.800781 527.550781 867 C 546.601562 835.199219 573 790.648438 586.5 768 C 618.601562 713.851562 672.300781 623.550781 714 553.5 C 732.449219 522.601562 752.398438 489 758.101562 478.949219 C 763.949219 468.898438 769.050781 460.648438 769.5 460.648438 C 769.949219 460.5 779.851562 476.550781 791.398438 496.199219 Z M 831.75 864 C 853.949219 900.601562 867.300781 924 866.699219 925.351562 C 864.75 930.898438 769.949219 1084.050781 769.199219 1083.300781 C 768 1082.101562 762 1072.5 718.5 1001.25 C 675.300781 930.601562 671.699219 924.300781 672.300781 922.949219 C 673.800781 920.398438 765.449219 767.101562 767.550781 763.800781 C 769.5 760.5 770.550781 762 794.550781 802.050781 C 808.199219 825 825 852.898438 831.75 864 Z M 831.75 864 "/></g></svg>