<?xml version="1.0" standalone="no"?>
<!DOCTYPE svg PUBLIC "-//W3C//DTD SVG 20010904//EN"
 "http://www.w3.org/TR/2001/REC-SVG-20010904/DTD/svg10.dtd">
<svg version="1.0" xmlns="http://www.w3.org/2000/svg"
 width="1024.000000pt" height="1024.000000pt" viewBox="0 0 1024.000000 1024.000000"
 preserveAspectRatio="xMidYMid meet">

<g transform="translate(0.000000,1024.000000) scale(0.100000,-0.100000)"
fill="#000000" stroke="none">
<path d="M4990 8137 c-320 -551 -1020 -1748 -1076 -1839 -16 -27 -32 -48 -35
-48 -5 0 -143 228 -244 403 l-27 47 -655 0 c-520 0 -654 -3 -650 -12 2 -7 210
-355 462 -773 l457 -760 -21 -40 c-12 -22 -234 -395 -495 -830 l-473 -790 940
-5 940 -5 186 -305 c300 -491 473 -776 654 -1078 137 -229 172 -281 182 -270
7 7 84 132 173 278 88 146 219 362 291 480 72 118 224 369 337 558 l207 342
939 0 c516 0 938 2 938 5 0 8 -99 174 -572 964 -250 416 -414 699 -409 706 5
5 100 161 211 345 112 184 319 527 461 763 l259 427 -659 0 -659 0 -133 -225
c-74 -124 -137 -225 -140 -225 -3 0 -49 73 -101 163 -52 89 -215 367 -362 617
-147 250 -381 649 -518 885 -138 237 -256 435 -262 442 -8 9 -45 -47 -146
-220z m286 -1205 c78 -130 210 -354 294 -497 84 -143 251 -424 370 -625 217
-365 465 -784 834 -1407 108 -183 196 -335 196 -338 0 -3 -118 -5 -262 -5
l-263 0 -130 218 c-71 119 -199 336 -285 482 -86 146 -257 436 -381 645 -123
209 -290 491 -369 627 -80 136 -147 248 -150 247 -3 0 -52 -79 -109 -177 -144
-246 -296 -504 -511 -867 -101 -170 -248 -420 -328 -555 -79 -135 -195 -329
-259 -432 l-115 -188 -265 0 c-145 0 -262 3 -260 8 2 4 107 180 234 392 127
212 303 509 393 660 214 361 572 963 850 1430 123 206 256 430 294 497 39 67
73 122 76 122 3 1 69 -106 146 -237z m269 -2452 c148 -244 237 -400 233 -409
-13 -37 -645 -1058 -650 -1053 -8 8 -48 72 -338 547 -288 471 -312 513 -308
522 10 17 621 1039 635 1061 13 22 20 12 180 -255 91 -153 203 -339 248 -413z"/>
</g>
</svg>
